<?xml version="1.0" encoding="UTF-8"?>
<svg id="Layer_1" data-name="Layer 1" xmlns="http://www.w3.org/2000/svg" viewBox="0 0 2000 2000">
  <defs>
    <style>
      .cls-1 {
        fill: #eef5db;
      }
    </style>
  </defs>
  <path class="cls-1" d="M268.99,725.67l-13.39-9.25,2.09-3.03c3.14-4.55,4.61-9.19,4.41-13.94-.2-4.74-3.17-11.08-8.88-19.01l-110.63-157.44,23.91-34.6,185.23,50.02c8.82,2.36,15.56,2.86,20.24,1.49,4.68-1.37,8.41-4.07,11.21-8.12l3.14-4.55,13.39,9.25-57.6,83.34-13.39-9.25,6.81-9.85c1.75-2.53,2.67-5.49,2.79-8.9,.11-3.4-1.6-6.33-5.13-8.77-2.02-1.4-4.17-2.51-6.46-3.34-2.28-.83-4.27-1.46-5.97-1.89l-31.36-8.61-42.41,61.37,16.66,22.33c1.55,2.07,3.49,4.4,5.8,7,2.31,2.59,4.48,4.59,6.5,5.98,3.37,2.33,6.67,2.87,9.89,1.61,3.23-1.25,5.83-3.31,7.81-6.17l7.33-10.61,13.39,9.25-45.38,65.66Zm-33.74-111.01l35.26-51.02-50.67-15.24c-6.89-2.27-14.6-4.8-23.12-7.58-8.53-2.78-16.2-5.53-23.02-8.26,4.34,5.24,9.16,11.31,14.47,18.21,5.31,6.9,10.21,13.4,14.7,19.49l32.38,44.4Z"/>
  <path class="cls-1" d="M396.35,542.41l-10.55-12.39,5.14-4.38c2.34-1.99,4.49-4.43,6.47-7.32s2.93-6.19,2.87-9.9c-.07-3.7-1.95-7.74-5.67-12.11l-69.64-81.83-20.81,17.71-13.53-15.9,20.81-17.71-1.19-1.4c-14.33-16.83-20.37-34.19-18.13-52.09,2.24-17.89,14.27-36.13,36.09-54.7,12.94-11.01,23.88-18.91,32.83-23.71,8.95-4.8,16.32-7.03,22.1-6.72,5.78,.32,10.53,2.66,14.24,7.03,4.91,5.77,6.23,12.77,3.97,21.01-2.26,8.24-9.55,17.6-21.86,28.08-2.52-2.96-6.16-6.05-10.91-9.26s-10.08-5.13-15.98-5.75c-5.91-.62-11.82,1.59-17.74,6.63-7.48,6.37-11.11,13.63-10.9,21.77,.22,8.15,4.7,17.37,13.46,27.65l9.55,11.22,83-70.64,83.17,97.72c3.72,4.37,7.4,6.88,11.05,7.53,3.65,.66,7.1,.21,10.34-1.35,3.25-1.55,5.96-3.26,8.14-5.12l2.81-2.39,10.55,12.39-74.35,63.27-10.55-12.39,2.81-2.39c2.18-1.86,4.3-4.26,6.35-7.22,2.05-2.96,3.05-6.29,2.98-10-.07-3.7-1.95-7.74-5.67-12.11l-69.64-81.83-47.46,40.39,69.64,81.83c3.72,4.37,7.4,6.88,11.05,7.53,3.65,.66,7.06,.24,10.23-1.25,3.17-1.49,5.92-3.23,8.26-5.22l6.31-5.37,10.55,12.39-80.19,68.25Z"/>
  <path class="cls-1" d="M608.36,385.82c-12.04,6.13-24.07,7.65-36.08,4.58-12.01-3.07-21.87-12.18-29.57-27.32-7.52-14.78-8.02-28.3-1.52-40.56s19.88-24,40.12-35.22l22.02-12.24-7.66-15.05c-4.64-9.12-9.4-16.11-14.29-20.98-4.88-4.86-11.07-5.39-18.55-1.59-6.93,3.53-10.28,8.79-10.05,15.79,.23,7,2.48,14.7,6.75,23.09-12.22,6.22-22.13,9.54-29.72,9.96-7.6,.42-13.11-2.74-16.54-9.49-3.43-6.75-3.62-13.43-.55-20.04,3.06-6.61,8.35-13.03,15.86-19.26s16.46-11.99,26.86-17.28c19.15-9.75,35.28-13.59,48.39-11.53,13.1,2.06,24.02,11.67,32.74,28.81l35.5,69.77c3.81,7.48,7.59,11.98,11.35,13.51,3.76,1.53,8.74,.72,14.95-2.44l1.09-.56,7.38,14.5-50.89,25.89-15.35-15.96-2.46,1.25c-1.51,6.97-3.23,12.95-5.16,17.95-1.93,5-4.79,9.44-8.56,13.31-3.77,3.87-9.12,7.57-16.05,11.1Zm4.89-27.63c7.84-3.99,12.49-10.32,13.94-18.98,1.45-8.66-.56-18.37-6.04-29.13l-10.44-20.52-11.9,7.09c-10.67,6.12-16.78,12.84-18.33,20.17-1.55,7.33,.18,15.93,5.19,25.78,7.98,15.69,17.17,20.89,27.57,15.6Z"/>
  <path class="cls-1" d="M785.23,305.69l-2.52-16.07,12.74-2c4.44-.7,7.96-2.39,10.55-5.07,2.58-2.68,3.19-8.37,1.83-17.07l-22.96-146.18c-1.27-8.08-3.59-12.95-6.95-14.6-3.37-1.65-7.17-2.14-11.42-1.47l-12.74,2-2.52-16.07,93.11-14.62c28.1-4.41,49.83-1.92,65.19,7.48,15.35,9.4,24.59,24,27.7,43.82,1.91,12.13,.75,23.92-3.46,35.35-4.22,11.44-12.32,21.46-24.33,30.08-12.01,8.62-28.93,14.64-50.77,18.07l-10.31,1.62,7.62,48.53c1.27,8.09,3.68,12.89,7.23,14.4,3.55,1.52,7.45,1.94,11.7,1.27l18.5-2.91,2.52,16.07-110.7,17.39Zm60.36-112.34l7.28-1.14c14.96-2.35,25.02-7.92,30.16-16.7,5.15-8.78,6.29-22.27,3.43-40.47-2.54-16.17-7.2-27.72-13.98-34.63-6.79-6.91-16.95-9.3-30.49-7.18l-11.83,1.86,15.43,98.26Z"/>
  <path class="cls-1" d="M1021.29,284.8c-13.48-.84-24.62-5.64-33.4-14.4-8.79-8.75-12.64-21.6-11.58-38.56,1.04-16.55,7.47-28.45,19.31-35.7s29.32-10.57,52.45-9.94l25.18,.65,1.06-16.85c.64-10.21,.09-18.65-1.64-25.33-1.74-6.67-6.79-10.27-15.17-10.79-7.77-.49-13.33,2.35-16.68,8.49-3.36,6.15-5.33,13.92-5.92,23.31-13.69-.86-23.91-3.04-30.66-6.53-6.75-3.5-9.89-9.03-9.42-16.59,.47-7.55,3.71-13.4,9.71-17.54,6-4.13,13.82-6.98,23.45-8.53s20.27-1.96,31.91-1.23c21.45,1.34,37.29,6.23,47.53,14.67,10.24,8.44,14.75,22.25,13.55,41.45l-4.89,78.13c-.52,8.38,.44,14.18,2.91,17.41,2.46,3.23,7.17,5.06,14.11,5.5l1.23,.08-1.02,16.24-56.99-3.57-5.11-21.54-2.76-.17c-4.84,5.23-9.36,9.52-13.57,12.84-4.21,3.33-8.92,5.7-14.13,7.11-5.22,1.41-11.71,1.88-19.47,1.4Zm18.25-21.31c8.78,.55,16-2.54,21.65-9.26,5.65-6.72,8.85-16.1,9.61-28.16l1.44-22.98-13.85,.06c-12.29-.16-20.97,2.53-26.04,8.06-5.07,5.53-7.94,13.81-8.63,24.84-1.1,17.57,4.17,26.71,15.81,27.44Z"/>
  <path class="cls-1" d="M1139.05,290.44l4.23-15.71,.89,.24c6.72,1.81,12.53,2.05,17.45,.72,4.91-1.33,8.62-6.63,11.12-15.93l23.12-85.98c2.34-8.69,1.9-14.75-1.32-18.16s-8.09-5.99-14.61-7.74l-.89-.24,4.23-15.71,59.89,16.11-.29,24.72,1.48,.4c6.34-7.83,13.08-13.17,20.21-16.02,7.12-2.85,16.71-2.66,28.77,.58,22.73,6.11,31.94,17.17,27.64,33.18-2.45,9.09-7.66,15.27-15.63,18.53-7.98,3.26-17.89,3.29-29.75,.1,2.18-8.1,2.79-14.51,1.83-19.22s-4.21-7.81-9.74-9.3c-5.14-1.38-9.77-.72-13.89,1.99-4.12,2.71-7.68,6.47-10.66,11.28-2.99,4.81-5.5,9.81-7.53,14.98-2.03,5.18-3.49,9.45-4.4,12.81l-13.79,51.29c-2.34,8.7-1.84,14.71,1.5,18.05,3.34,3.34,7.98,5.8,13.91,7.4l9.49,2.55-4.23,15.71-99.02-26.63Z"/>
  <path class="cls-1" d="M1328.1,354.05c-12.12-5.96-20.56-14.66-25.31-26.12-4.75-11.45-3.38-24.8,4.12-40.05,7.31-14.88,17.82-23.4,31.54-25.55,13.71-2.15,31.13,1.5,52.25,10.97l23,10.28,7.45-15.15c4.51-9.18,7.25-17.19,8.21-24.02,.96-6.82-2.33-12.09-9.86-15.79-6.98-3.43-13.21-2.95-18.66,1.43-5.46,4.39-10.27,10.81-14.42,19.25-12.31-6.05-20.91-11.98-25.8-17.81-4.89-5.82-5.67-12.13-2.33-18.93,3.34-6.79,8.57-10.95,15.7-12.47,7.12-1.51,15.44-1.14,24.93,1.13,9.49,2.27,19.47,5.98,29.94,11.12,19.29,9.48,32.04,20.08,38.25,31.79,6.21,11.72,5.08,26.21-3.41,43.48l-34.52,70.26c-3.7,7.53-5.04,13.26-4,17.19,1.03,3.93,4.67,7.43,10.92,10.5l1.1,.54-7.18,14.6-51.25-25.18,3.56-21.85-2.48-1.22c-6.48,2.97-12.3,5.19-17.46,6.64-5.16,1.46-10.43,1.84-15.78,1.14-5.36-.7-11.53-2.76-18.51-6.19Zm25.04-12.67c7.9,3.88,15.75,3.8,23.55-.23,7.8-4.04,14.36-11.47,19.69-22.31l10.15-20.66-12.81-5.27c-11.29-4.86-20.34-5.72-27.13-2.56-6.8,3.16-12.63,9.7-17.51,19.62-7.76,15.8-6.41,26.27,4.06,31.41Z"/>
  <path class="cls-1" d="M1499.62,458.5c-11.83-9.13-20.62-19.34-26.38-30.64-5.76-11.3-7.41-23.81-4.95-37.56,2.46-13.74,10.07-28.88,22.82-45.4,13.5-17.5,26.73-29.2,39.69-35.1,12.95-5.9,25.55-7.48,37.8-4.76,12.24,2.73,23.96,8.4,35.14,17.03,15.71,12.13,25.76,23.82,30.13,35.08,4.36,11.26,3.8,20.45-1.7,27.58-2.75,3.57-6.17,6.23-10.24,8-4.08,1.77-9.17,1.91-15.27,.43-6.1-1.47-13.36-5.47-21.79-11.97,4.38-5.67,7.89-11.23,10.55-16.68,2.65-5.45,3.97-10.51,3.96-15.17-.02-4.67-2.05-8.57-6.1-11.69-4.7-3.63-10.01-5.2-15.93-4.73-5.92,.47-12.85,3.92-20.77,10.34-7.93,6.42-17.21,16.52-27.83,30.29-12.63,16.37-19.84,30.39-21.61,42.07-1.78,11.68,2.44,21.46,12.64,29.34,8.42,6.5,17.18,10.23,26.28,11.17,9.09,.95,17.14-.28,24.15-3.66,.94,2.8,1.15,5.54,.62,8.24-.53,2.69-1.67,5.18-3.42,7.44-3.13,4.05-7.95,6.86-14.45,8.43-6.51,1.57-14.31,1.04-23.4-1.58-9.09-2.62-19.07-8.12-29.92-16.5Z"/>
  <path class="cls-1" d="M1555.87,495.43l12.42-10.51,.4,.47c4.49,5.31,9.16,8.94,14.01,10.87,4.85,1.93,10.79-.08,17.82-6.02l122.64-104.11c4.06-3.44,6.36-6.98,6.88-10.64,.52-3.66,0-7.04-1.55-10.15-1.56-3.1-3.26-5.76-5.11-7.94l-2.38-2.81,12.42-10.51,46.58,55.09-38.68,32.71c-4.07,3.44-8.54,6.95-13.41,10.53-4.88,3.58-10.86,7.84-17.95,12.77l1.78,2.11c8.58-1.9,15.75-2.13,21.52-.71,5.76,1.42,10.78,3.95,15.05,7.58,4.27,3.62,8.52,7.94,12.75,12.94,10.17,12.03,14.57,24.53,13.2,37.48-1.38,12.96-9.95,26.11-25.74,39.46l-54.39,45.99c-7.19,6.08-10.67,11.23-10.44,15.46,.22,4.23,2.59,9,7.08,14.32l.59,.7-12.42,10.51-44.01-52.04,77.12-65.22c10.16-8.59,16.78-16.6,19.87-24.04,3.09-7.44,1.73-14.6-4.09-21.47-4.36-5.16-9.48-7.8-15.35-7.93-5.87-.13-12.11,1.53-18.71,4.97-6.61,3.44-13.11,7.87-19.52,13.29l-44.58,38.1c-6.56,5.55-9.49,10.57-8.77,15.06,.71,4.49,3.25,9.31,7.61,14.47l.59,.7-12.42,10.51-60.86-71.97Z"/>
  <path class="cls-1" d="M1702.79,695.1c-6.2-12-7.8-24.02-4.8-36.05,3-12.03,12.04-21.94,27.14-29.74,14.73-7.61,28.25-8.2,40.55-1.77s24.12,19.73,35.47,39.9l12.37,21.94,15-7.75c9.09-4.7,16.05-9.5,20.89-14.42,4.83-4.91,5.32-11.1,1.47-18.56-3.57-6.91-8.86-10.23-15.85-9.95-7,.27-14.68,2.57-23.05,6.89-6.29-12.19-9.67-22.07-10.14-29.66-.47-7.59,2.66-13.12,9.39-16.6,6.73-3.47,13.41-3.7,20.04-.67,6.63,3.02,13.08,8.27,19.36,15.74,6.28,7.47,12.09,16.39,17.44,26.75,9.86,19.09,13.8,35.2,11.82,48.31-1.98,13.12-11.52,24.09-28.61,32.92l-69.56,35.92c-7.46,3.85-11.94,7.66-13.44,11.44-1.51,3.77-.66,8.75,2.53,14.93l.56,1.09-14.46,7.47-26.2-50.74,15.86-15.45-1.27-2.45c-6.98-1.47-12.97-3.15-17.98-5.05-5.02-1.9-9.47-4.73-13.36-8.48-3.89-3.75-7.63-9.08-11.19-15.99Zm27.66,4.72c4.04,7.82,10.39,12.43,19.06,13.82s18.36-.67,29.1-6.22l20.46-10.57-7.16-11.85c-6.18-10.63-12.94-16.7-20.29-18.2-7.34-1.51-15.92,.28-25.74,5.35-15.64,8.08-20.78,17.3-15.43,27.66Z"/>
</svg>